<svg width="606" height="408" viewBox="0 0 606 408" fill="none" xmlns="http://www.w3.org/2000/svg">
<g clip-path="url(#clip0_689_4)">
<path d="M569.92 99.5123C571.676 97.2808 573.272 94.928 574.697 92.4715L540.994 86.937L577.445 87.2052C580.943 79.5908 582.852 71.3417 583.054 62.9633C583.255 54.5849 581.746 46.2533 578.619 38.4789L529.718 63.8691L574.817 30.6907C570.591 23.3839 564.907 17.0262 558.12 12.0137C551.332 7.00113 543.586 3.44109 535.364 1.55531C527.141 -0.330476 518.619 -0.501598 510.328 1.0526C502.037 2.60679 494.154 5.85301 487.171 10.589C480.188 15.3251 474.254 21.4495 469.739 28.5808C465.224 35.712 462.224 43.6974 460.927 52.0395C459.63 60.3816 460.063 68.9017 462.199 77.0691C464.335 85.2365 468.128 92.8762 473.343 99.5123C470.613 102.988 468.264 106.746 466.336 110.724L510.084 133.472L463.44 117.805C460.163 127.495 459.351 137.85 461.079 147.933C462.807 158.016 467.02 167.508 473.337 175.552C466.807 183.862 462.528 193.717 460.912 204.165C459.297 214.613 460.4 225.301 464.115 235.198C467.83 245.095 474.031 253.867 482.12 260.666C490.209 267.465 499.913 272.062 510.295 274.014C509.482 276.307 509.071 278.724 509.081 281.158C509.045 284.758 509.968 288.303 511.754 291.428C510.001 294.566 509.081 298.102 509.081 301.698C509.081 305.294 510.001 308.829 511.754 311.968C510.001 315.107 509.081 318.642 509.081 322.238C509.081 325.834 510.001 329.37 511.754 332.508C510.001 335.647 509.081 339.183 509.081 342.779C509.081 346.374 510.001 349.91 511.754 353.049C509.968 356.174 509.045 359.719 509.081 363.319C509.081 372.602 514.822 380.122 521.908 380.122C528.994 380.122 534.734 372.602 534.734 363.319C534.768 359.718 533.844 356.173 532.055 353.049C533.812 349.911 534.734 346.375 534.734 342.779C534.734 339.182 533.812 335.646 532.055 332.508C533.812 329.371 534.734 325.835 534.734 322.238C534.734 318.642 533.812 315.105 532.055 311.968C533.812 308.831 534.734 305.294 534.734 301.698C534.734 298.101 533.812 294.565 532.055 291.428C533.844 288.303 534.768 284.758 534.734 281.158C534.743 278.69 534.321 276.239 533.486 273.917C543.807 271.884 553.433 267.234 561.444 260.411C569.455 253.588 575.582 244.822 579.238 234.951C582.894 225.079 583.957 214.434 582.326 204.034C580.694 193.633 576.423 183.826 569.92 175.552C578.439 164.713 583.071 151.323 583.071 137.532C583.071 123.741 578.439 110.351 569.92 99.5123Z" fill="#F2F2F2"/>
<path d="M366.749 164.956C365.578 163.462 364.512 161.89 363.557 160.249L386.092 156.546L361.721 156.723C359.382 151.632 358.106 146.116 357.97 140.514C357.835 134.913 358.844 129.342 360.934 124.144L393.64 141.124L363.483 118.934C366.303 114.039 370.102 109.778 374.642 106.417C379.181 103.056 384.364 100.668 389.867 99.4016C395.37 98.1351 401.075 98.0175 406.625 99.0562C412.175 100.095 417.452 102.267 422.126 105.438C426.8 108.609 430.771 112.71 433.791 117.485C436.811 122.26 438.814 127.607 439.677 133.192C440.54 138.777 440.244 144.48 438.806 149.946C437.368 155.411 434.821 160.521 431.322 164.956C433.15 167.279 434.721 169.792 436.008 172.453L406.752 187.665L437.958 177.183C440.151 183.663 440.694 190.589 439.537 197.332C438.38 204.075 435.561 210.422 431.333 215.799C435.702 221.355 438.565 227.945 439.647 234.932C440.728 241.919 439.992 249.067 437.508 255.685C435.024 262.304 430.877 268.17 425.468 272.717C420.058 277.264 413.569 280.338 406.626 281.643C407.168 283.176 407.442 284.792 407.436 286.418C407.457 288.819 406.839 291.182 405.646 293.265C406.82 295.363 407.436 297.727 407.436 300.132C407.436 302.536 406.82 304.901 405.646 306.998C406.82 309.097 407.436 311.463 407.436 313.868C407.436 316.273 406.82 318.639 405.646 320.738C406.82 322.836 407.436 325.2 407.436 327.604C407.436 330.009 406.82 332.373 405.646 334.471C406.839 336.554 407.457 338.917 407.436 341.318C407.436 347.52 403.599 352.552 398.884 352.552C394.17 352.552 390.333 347.52 390.333 341.318C390.312 338.917 390.93 336.554 392.123 334.471C390.949 332.373 390.333 330.009 390.333 327.604C390.333 325.2 390.949 322.836 392.123 320.738C390.949 318.639 390.333 316.273 390.333 313.868C390.333 311.463 390.949 309.097 392.123 306.998C390.949 304.901 390.333 302.536 390.333 300.132C390.333 297.727 390.949 295.363 392.123 293.265C390.93 291.182 390.312 288.819 390.333 286.418C390.328 284.767 390.611 283.127 391.171 281.574C384.27 280.215 377.832 277.106 372.475 272.545C367.117 267.983 363.019 262.121 360.574 255.52C358.128 248.92 357.416 241.801 358.507 234.846C359.597 227.891 362.453 221.333 366.8 215.799C361.106 208.551 358.01 199.598 358.01 190.378C358.01 181.157 361.106 172.204 366.8 164.956H366.749Z" fill="#F2F2F2"/>
<path d="M320.476 408C478.166 408 606 391.907 606 372.054C606 352.202 478.166 336.109 320.476 336.109C162.785 336.109 34.9516 352.202 34.9516 372.054C34.9516 391.907 162.785 408 320.476 408Z" fill="#F2F2F2"/>
<path d="M408.16 291.205C408.16 292.346 408.125 293.487 408.063 294.583C408.063 294.748 408.063 294.908 408.063 295.074C407.758 299.894 406.884 304.661 405.458 309.275C405.418 309.418 405.366 309.572 405.321 309.714C403.86 314.307 401.898 318.725 399.472 322.889L399.227 323.3C396.62 327.688 393.563 331.791 390.105 335.544L389.752 335.92C385.866 340.094 381.562 343.856 376.908 347.149C376.748 347.269 376.583 347.389 376.423 347.497C371.548 350.913 366.362 353.863 360.934 356.307C360.188 356.643 359.435 356.974 358.654 357.3L357.97 357.585C349.665 361.006 340.964 363.369 332.071 364.62L330.982 364.768C325.989 365.428 320.958 365.758 315.921 365.755C278.592 365.755 246.44 347.828 231.931 322.033C230.954 320.31 230.063 318.552 229.257 316.761L228.927 316.025C225.847 309.012 224.094 301.488 223.756 293.836C223.756 293.647 223.756 293.465 223.756 293.265C223.756 292.58 223.728 291.89 223.728 291.2C223.725 285.865 224.423 280.553 225.803 275.401C225.843 275.241 225.883 275.087 225.928 274.933C227.378 269.683 229.485 264.637 232.199 259.915C232.273 259.784 232.347 259.647 232.427 259.516C235.101 254.943 238.267 250.677 241.868 246.792C241.962 246.675 242.063 246.562 242.17 246.456L242.215 246.41C242.666 245.931 243.122 245.446 243.589 244.972L244.29 244.265C244.752 243.803 245.225 243.352 245.698 242.895H245.727C246.867 241.823 248.028 240.782 249.21 239.774C250.852 238.382 252.568 237.041 254.341 235.752L254.723 235.467C259.43 232.107 264.433 229.183 269.67 226.731C269.824 226.657 269.984 226.577 270.138 226.514C276.039 223.787 282.183 221.621 288.489 220.044C288.688 219.987 288.882 219.942 289.059 219.896C296.869 217.988 304.862 216.926 312.899 216.729C313.167 216.729 313.435 216.729 313.709 216.729C314.439 216.729 315.174 216.701 315.909 216.701C352.902 216.701 384.809 234.314 399.506 259.721C399.637 259.95 399.762 260.178 399.894 260.4L400.464 261.399C400.777 261.969 401.074 262.54 401.37 263.145C401.507 263.419 401.638 263.687 401.769 263.961C401.849 264.12 401.934 264.28 402.009 264.446C404.159 268.922 405.772 273.637 406.814 278.493C406.86 278.681 406.894 278.864 406.934 279.064C407.747 283.06 408.157 287.127 408.16 291.205Z" fill="#8BBF32"/>
<g opacity="0.2">
<path opacity="0.2" d="M399.911 260.349C395.696 258.751 391.515 257.089 387.369 255.362C361.495 244.642 336.594 231.705 312.945 216.695H313.755C340.868 233.823 369.606 248.226 399.551 259.693C399.66 259.915 399.785 260.127 399.911 260.349Z" fill="#F2F2F2"/>
</g>
<g opacity="0.2">
<path opacity="0.2" d="M406.928 278.995C396.667 275.572 386.514 271.768 376.469 267.584C350.329 256.761 325.182 243.676 301.315 228.477C296.816 225.613 292.54 222.789 288.489 220.004L289.059 219.862C293.015 222.566 297.196 225.32 301.6 228.124C334.525 249.062 369.849 265.958 406.809 278.447C406.854 278.63 406.888 278.813 406.928 278.995Z" fill="#F2F2F2"/>
</g>
<g opacity="0.2">
<path opacity="0.2" d="M408.063 294.583C408.063 294.748 408.063 294.914 408.063 295.074C393.739 290.703 379.591 285.629 365.62 279.851C339.476 269.019 314.325 255.925 290.455 240.716C282.902 235.906 275.97 231.193 269.687 226.697L270.155 226.475C276.386 230.931 283.267 235.604 290.735 240.362C327.251 263.596 366.711 281.832 408.063 294.583Z" fill="#F2F2F2"/>
</g>
<g opacity="0.2">
<path opacity="0.2" d="M405.429 309.269C405.389 309.423 405.338 309.572 405.292 309.72C388.111 304.812 371.225 298.926 354.715 292.09C328.573 281.262 303.426 268.169 279.561 252.96C270.178 246.986 261.758 241.155 254.341 235.718L254.723 235.438C262.134 240.853 270.503 246.655 279.841 252.606C318.788 277.395 361.079 296.476 405.429 309.269Z" fill="#F2F2F2"/>
</g>
<g opacity="0.2">
<path opacity="0.2" d="M399.443 322.889L399.198 323.299C380.367 318.14 361.877 311.806 343.838 304.334C317.696 293.503 292.547 280.41 268.678 265.205C258.622 258.797 249.66 252.549 241.885 246.781C241.976 246.673 242.078 246.558 242.187 246.45C249.974 252.213 258.93 258.432 268.981 264.851C298.836 283.879 343.553 307.552 399.443 322.889Z" fill="#F2F2F2"/>
</g>
<g opacity="0.2">
<path opacity="0.2" d="M390.082 335.544L389.729 335.92C370.411 330.698 351.449 324.237 332.961 316.578C306.818 305.748 281.669 292.655 257.801 277.449C248.27 271.367 239.718 265.438 232.199 259.915C232.273 259.784 232.347 259.653 232.427 259.522C239.946 265.051 248.52 270.996 258.081 277.089C288.226 296.3 333.485 320.224 390.082 335.544Z" fill="#F2F2F2"/>
</g>
<g opacity="0.2">
<path opacity="0.2" d="M376.885 347.149C376.725 347.269 376.56 347.389 376.401 347.497C357.93 342.39 339.79 336.153 322.083 328.823C295.94 317.994 270.792 304.901 246.924 289.693C239.228 284.786 232.165 279.994 225.786 275.401C225.826 275.247 225.865 275.092 225.911 274.938C232.336 279.543 239.445 284.393 247.209 289.34C276.939 308.282 321.371 331.807 376.885 347.149Z" fill="#F2F2F2"/>
</g>
<g opacity="0.2">
<path opacity="0.2" d="M358.648 357.3L357.964 357.585C342.101 352.909 326.497 347.395 311.218 341.067C296.396 334.933 281.796 328.012 267.555 320.384C256.838 314.633 246.339 308.484 236.058 301.938C231.76 299.199 227.667 296.498 223.779 293.835C223.779 293.647 223.779 293.465 223.779 293.265C227.762 295.985 231.96 298.754 236.372 301.572C245.738 307.546 256.57 313.971 268.747 320.458C297.395 335.742 327.516 348.086 358.648 357.3Z" fill="#F2F2F2"/>
</g>
<g opacity="0.2">
<path opacity="0.2" d="M332.071 364.62L330.982 364.768C320.656 361.311 310.433 357.49 300.312 353.306C278.412 344.232 257.207 333.563 236.868 321.382C234.329 319.861 231.802 318.32 229.286 316.761L228.955 316.025C231.726 317.752 234.61 319.511 237.609 321.303C267.457 339.082 299.126 353.605 332.071 364.62Z" fill="#F2F2F2"/>
</g>
<path opacity="0.1" d="M360.911 356.307C360.165 356.643 359.412 356.974 358.631 357.3L357.947 357.585C349.65 361.004 340.957 363.368 332.071 364.62L330.982 364.768C325.989 365.428 320.958 365.758 315.921 365.755C278.592 365.755 246.44 347.828 231.931 322.033C233.561 321.782 235.198 321.571 236.839 321.382L237.581 321.303C241.993 320.835 246.44 320.572 250.875 320.384C256.424 320.093 261.984 320.093 267.532 320.384C267.92 320.384 268.308 320.43 268.673 320.464C272.454 320.732 276.209 321.281 279.909 322.107C291.168 324.663 301.486 330.215 311.714 335.572C327.511 343.823 343.661 351.868 360.911 356.307Z" fill="black"/>
<path opacity="0.1" d="M399.529 259.67C384.832 234.263 352.925 216.649 315.932 216.649C315.197 216.649 314.461 216.649 313.732 216.649H312.922C304.885 216.844 296.892 217.905 289.082 219.816L288.511 219.959C282.207 221.541 276.064 223.707 270.161 226.429L269.693 226.651C264.455 229.103 259.451 232.029 254.746 235.393L254.364 235.672C249.983 238.832 245.922 242.413 242.238 246.364C241.759 251.231 240.938 255.996 238.818 260.383C237.324 263.464 235.779 266.431 237.894 269.512C239.314 271.583 242.386 274.208 245.003 274.311C252.192 274.602 256.188 264.982 259.574 260.189C264.762 252.852 272.452 247.757 279.966 242.833C283.175 240.727 286.419 238.605 290.039 237.344C293.092 236.355 296.267 235.796 299.474 235.684C308.213 235.193 317.147 236.522 325.128 240.145C334.249 244.282 342.344 251.414 352.298 252.401C356.807 252.846 361.419 251.973 365.837 253.006C373.687 254.849 379.131 262.26 386.77 264.851C391.713 266.528 397.032 265.992 402.06 264.349C401.41 262.979 400.713 261.631 399.968 260.303C399.785 260.127 399.66 259.915 399.529 259.67Z" fill="black"/>
<path d="M175.949 288.261C173.247 291.114 170.214 293.619 167.427 296.386C157.102 306.656 150.484 320.002 141.203 331.19C138.7 334.209 135.981 337.107 134.117 340.553C132.253 344 131.318 348.193 132.652 351.879C133.792 355.04 136.42 357.408 138.974 359.593C140.549 361.04 142.279 362.309 144.133 363.376C148.42 365.658 153.494 365.784 158.351 365.858C161.03 365.898 164.297 365.596 165.443 363.171C161.101 361.1 157.102 358.375 153.585 355.091C151.573 353.209 149.674 351.052 148.859 348.422C147.468 343.937 149.526 339.053 152.439 335.373C155.352 331.693 159.109 328.743 161.954 325.011C164.799 321.28 166.634 316.995 170.06 313.948C172.432 311.843 175.379 310.525 178.041 308.773C181.929 306.211 185.139 302.765 188.303 299.353L205.12 281.249C205.526 280.902 205.805 280.431 205.913 279.908C205.981 279.229 205.479 278.636 205.001 278.145C201.341 274.385 194.443 267.784 189.415 272.736C184.569 277.506 180.641 283.309 175.949 288.261Z" fill="#EFDBCC"/>
<path opacity="0.1" d="M175.949 288.261C173.247 291.114 170.214 293.619 167.427 296.386C157.102 306.656 150.484 320.002 141.203 331.19C138.7 334.209 135.981 337.107 134.117 340.553C132.253 344 131.318 348.193 132.652 351.879C133.792 355.04 136.42 357.408 138.974 359.593C140.549 361.04 142.279 362.309 144.133 363.376C148.42 365.658 153.494 365.784 158.351 365.858C161.03 365.898 164.297 365.596 165.443 363.171C161.101 361.1 157.102 358.375 153.585 355.091C151.573 353.209 149.674 351.052 148.859 348.422C147.468 343.937 149.526 339.053 152.439 335.373C155.352 331.693 159.109 328.743 161.954 325.011C164.799 321.28 166.634 316.995 170.06 313.948C172.432 311.843 175.379 310.525 178.041 308.773C181.929 306.211 185.139 302.765 188.303 299.353L205.12 281.249C205.526 280.902 205.805 280.431 205.913 279.908C205.981 279.229 205.479 278.636 205.001 278.145C201.341 274.385 194.443 267.784 189.415 272.736C184.569 277.506 180.641 283.309 175.949 288.261Z" fill="black"/>
<path d="M199.984 255.351C203.376 254.632 207.03 256.441 210.308 255.317C212.166 254.678 213.586 253.194 214.926 251.756L220.398 245.919C221.943 244.27 223.517 242.587 224.469 240.533C225.312 238.719 225.609 236.716 226.019 234.753C227.023 229.732 228.739 224.586 232.507 221.128C237.204 216.803 244.444 215.993 250.476 218.059C256.507 220.124 261.416 224.734 265.024 230.006C261.798 233.886 258.183 237.469 254.962 241.349C253.933 242.708 252.722 243.919 251.365 244.949C249.863 245.866 248.247 246.582 246.559 247.078C240.762 249.132 234.588 252.104 232.199 257.781C231.367 259.756 231.059 261.907 230.603 264.001C229.725 267.96 228.123 271.88 225.227 274.716C222.331 277.552 217.958 279.104 214.099 277.877C209.829 276.519 207.212 272.331 205.012 268.428C202.672 264.355 200.976 259.943 199.984 255.351Z" fill="#EFDBCC"/>
<path opacity="0.1" d="M199.984 255.351C203.376 254.632 207.03 256.441 210.308 255.317C212.166 254.678 213.586 253.194 214.926 251.756L220.398 245.919C221.943 244.27 223.517 242.587 224.469 240.533C225.312 238.719 225.609 236.716 226.019 234.753C227.023 229.732 228.739 224.586 232.507 221.128C237.204 216.803 244.444 215.993 250.476 218.059C256.507 220.124 261.416 224.734 265.024 230.006C261.798 233.886 258.183 237.469 254.962 241.349C253.933 242.708 252.722 243.919 251.365 244.949C249.863 245.866 248.247 246.582 246.559 247.078C240.762 249.132 234.588 252.104 232.199 257.781C231.367 259.756 231.059 261.907 230.603 264.001C229.725 267.96 228.123 271.88 225.227 274.716C222.331 277.552 217.958 279.104 214.099 277.877C209.829 276.519 207.212 272.331 205.012 268.428C202.672 264.355 200.976 259.943 199.984 255.351Z" fill="black"/>
<path d="M348.495 232.688C369.919 240.362 391.217 249.451 408.924 263.784C417.03 270.351 424.253 277.928 431.96 284.963C435.997 288.649 440.164 292.181 444.331 295.718L473.913 320.823C477.573 323.933 481.25 327.048 485.314 329.65C494.874 335.801 506.276 338.927 515.637 345.54C515.62 348.955 516.179 352.348 517.29 355.576C517.714 356.765 518.516 357.782 519.572 358.471C520.628 359.161 521.881 359.484 523.139 359.394C537.881 358.543 552.829 365.704 567.679 363.901C568.108 363.854 568.52 363.709 568.883 363.476C569.245 363.244 569.55 362.93 569.771 362.56C570.769 360.814 569.065 359.182 567.571 358.138L547.407 344.011C544.084 341.683 540.76 339.355 537.374 337.124C525.129 329.068 512.051 322.227 500.701 312.978C498.278 311.004 495.946 308.927 493.609 306.844C481.25 295.855 468.885 284.855 457.169 273.181C440.141 256.207 424.036 237.27 407.156 220.147C405.552 218.439 403.822 216.854 401.98 215.406C400.179 214.122 398.292 212.964 396.331 211.942L374.901 200.16C371.657 198.374 368.06 196.531 364.44 197.233C363.543 197.012 362.606 197.016 361.71 197.245C360.815 197.474 359.991 197.921 359.31 198.545C357.93 199.818 357.029 201.501 356.117 203.15C354.926 205.146 353.988 207.283 353.324 209.512C352.56 212.541 352.811 215.788 351.927 218.766C351.357 220.735 350.297 222.532 349.578 224.472C348.636 227.102 348.267 229.903 348.495 232.688Z" fill="#EFDBCC"/>
<path opacity="0.1" d="M348.495 232.688C369.919 240.362 391.217 249.451 408.924 263.784C417.03 270.351 424.253 277.928 431.96 284.963C435.997 288.649 440.164 292.181 444.331 295.718L473.913 320.823C477.573 323.933 481.25 327.048 485.314 329.65C494.874 335.801 506.276 338.927 515.637 345.54C515.62 348.955 516.179 352.348 517.29 355.576C517.714 356.765 518.516 357.782 519.572 358.471C520.628 359.161 521.881 359.484 523.139 359.394C537.881 358.543 552.829 365.704 567.679 363.901C568.108 363.854 568.52 363.709 568.883 363.476C569.245 363.244 569.55 362.93 569.771 362.56C570.769 360.814 569.065 359.182 567.571 358.138L547.407 344.011C544.084 341.683 540.76 339.355 537.374 337.124C525.129 329.068 512.051 322.227 500.701 312.978C498.278 311.004 495.946 308.927 493.609 306.844C481.25 295.855 468.885 284.855 457.169 273.181C440.141 256.207 424.036 237.27 407.156 220.147C405.552 218.439 403.822 216.854 401.98 215.406C400.179 214.122 398.292 212.964 396.331 211.942L374.901 200.16C371.657 198.374 368.06 196.531 364.44 197.233C363.543 197.012 362.606 197.016 361.71 197.245C360.815 197.474 359.991 197.921 359.31 198.545C357.93 199.818 357.029 201.501 356.117 203.15C354.926 205.146 353.988 207.283 353.324 209.512C352.56 212.541 352.811 215.788 351.927 218.766C351.357 220.735 350.297 222.532 349.578 224.472C348.636 227.102 348.267 229.903 348.495 232.688Z" fill="black"/>
<path d="M203.136 299.724C216.457 299.724 227.256 288.916 227.256 275.583C227.256 262.251 216.457 251.443 203.136 251.443C189.815 251.443 179.016 262.251 179.016 275.583C179.016 288.916 189.815 299.724 203.136 299.724Z" fill="#EFDBCC"/>
<path d="M349.92 188.412C353.29 188.469 357.115 188.732 359.235 191.351C361.356 193.969 360.877 197.558 360.341 200.788C358.665 210.995 356.921 221.385 352.258 230.617C351.931 231.45 351.351 232.158 350.599 232.642C349.259 233.333 347.669 232.523 346.386 231.729C337.042 225.921 327.699 219.668 317.05 216.895C316.407 216.812 315.817 216.498 315.391 216.01C315.245 215.704 315.161 215.372 315.144 215.033C315.128 214.694 315.178 214.355 315.294 214.036C316.354 209.306 317.694 204.633 318.526 199.852C319.028 196.999 318.099 190.152 320.624 188.384C323.298 186.501 330.999 188.093 334.163 188.144L349.92 188.412Z" fill="#EFDBCC"/>
<path d="M361.265 235.529C382.689 243.204 403.987 252.293 421.665 266.62C429.771 273.192 436.994 280.77 444.702 287.805C448.738 291.491 452.905 295.022 457.072 298.554L486.654 323.659C490.314 326.763 493.991 329.884 498.055 332.48C507.656 338.653 519.057 341.769 528.384 348.353C528.366 351.77 528.925 355.165 530.037 358.395C530.462 359.583 531.264 360.599 532.32 361.289C533.376 361.978 534.628 362.302 535.886 362.212C550.628 361.356 565.576 368.523 580.426 366.72C580.855 366.672 581.267 366.525 581.63 366.292C581.993 366.058 582.297 365.744 582.518 365.373C583.516 363.661 581.811 361.995 580.318 360.951L560.154 346.83C556.831 344.502 553.507 342.174 550.121 339.943C537.898 331.887 524.821 325.045 513.47 315.802C511.048 313.828 508.716 311.746 506.379 309.669C494.019 298.68 481.654 287.679 469.933 276.005C452.911 259.031 436.806 240.094 419.926 222.943C418.312 221.257 416.576 219.694 414.733 218.264C412.93 216.984 411.043 215.829 409.083 214.806L387.654 203.024C384.41 201.238 380.813 199.396 377.193 200.097C376.296 199.874 375.359 199.876 374.463 200.104C373.568 200.332 372.743 200.779 372.062 201.404C370.683 202.676 369.782 204.365 368.87 206.014C367.68 208.009 366.742 210.144 366.076 212.37C365.313 215.4 365.563 218.646 364.68 221.63C364.11 223.599 363.049 225.396 362.331 227.336C361.398 229.96 361.034 232.754 361.265 235.529Z" fill="#EFDBCC"/>
<path d="M368.374 237.298L369.052 227.422C369.246 224.66 369.44 221.864 370.289 219.234C371.253 216.25 373.009 213.597 374.793 211.018C375.745 209.514 376.896 208.146 378.213 206.95C380.157 205.312 382.671 204.422 384.484 202.648C385.003 202.14 385.488 201.393 385.18 200.736C385.038 200.491 384.843 200.281 384.61 200.12C380.14 196.451 374.782 194.066 369.491 191.721L359.492 187.294C355.285 193 351.004 198.882 348.837 205.649C348.51 206.851 348.101 208.029 347.612 209.175C346.329 211.851 343.895 213.802 342.35 216.336C340.896 218.721 340.292 221.511 339.716 224.244C339.374 225.847 339.043 227.559 339.619 229.093C340.258 230.805 341.899 231.912 343.393 232.911C350.012 237.253 357.001 241.732 364.896 242.348C366.344 242.456 368.271 243.181 368.733 241.777C369.058 240.836 368.3 238.451 368.374 237.298Z" fill="#3F3D56"/>
<path d="M170.79 265.05C168.293 268.4 169.969 273.278 172.557 276.559C175.145 279.84 178.606 282.59 180.054 286.509C183.526 295.884 173.84 305.338 174.171 315.312C174.467 324.201 182.317 330.643 188.993 336.548C203.176 349.101 215.296 366.594 213.7 385.491C220.152 383.6 225.726 379.482 229.434 373.869C231.6 378.624 232.514 383.854 232.091 389.063C246.958 378.878 255.424 360.05 253.184 342.162C252.118 333.695 248.857 325.439 249.364 316.926C249.638 312.31 251.012 307.843 252.004 303.324C253.267 297.498 253.898 291.552 253.885 285.591C253.885 278.79 252.625 271.235 247.266 267.053C242.706 263.499 236.435 263.379 230.654 263.407C224.549 263.447 218.443 263.476 212.349 263.858C206.129 264.246 199.716 266.3 193.593 266.454C186.775 266.625 177.169 256.492 170.79 265.05Z" fill="#3F3D56"/>
<path d="M261.951 220.392C257.92 221.724 254.29 224.053 251.399 227.165C249.581 229.139 248.076 231.393 246.189 233.304C243.943 235.587 241.201 237.298 238.572 239.124C233.55 242.604 228.847 246.513 224.149 250.415L201.004 269.644C197.384 272.65 193.764 275.663 190.349 278.904C186.137 282.898 182.249 287.257 177.751 290.937C175.117 293.094 172.284 295.017 169.867 297.419C167.586 299.701 165.739 302.331 163.869 304.939C156.252 315.522 148.069 325.685 139.356 335.384C135.656 339.509 131.831 343.572 127.333 346.795C118.006 353.522 110.926 363.593 102.728 371.666C102.033 372.351 101.269 373.327 101.696 374.211C101.951 374.635 102.36 374.943 102.837 375.073C108.834 377.309 113.999 367.57 120.247 368.95C123.097 369.578 124.847 372.277 126.888 374.337C128.929 376.396 132.429 377.914 134.562 375.946C133.831 370.216 134.575 364.395 136.722 359.034C140.217 350.356 147.149 343.515 154.549 337.786C161.948 332.058 170.003 327.174 176.953 320.903C188.611 310.388 197.128 296.044 210.958 288.621C216.374 285.711 222.359 284.01 227.758 281.032C238.208 275.247 245.516 265.056 251.228 254.575C251.901 253.138 252.81 251.824 253.919 250.689C255.111 249.75 256.437 248.994 257.853 248.447C265.198 245.054 271.789 240.221 277.235 234.234C275.525 233.008 273.923 231.695 272.219 230.463C270.831 229.543 269.562 228.457 268.439 227.228C267.299 225.881 266.558 224.266 265.589 222.794C264.619 221.322 263.605 220.923 261.951 220.392Z" fill="#EFDBCC"/>
<path d="M324.233 222.155C322.728 220.946 322.676 218.732 322.75 216.775C322.997 210.773 323.241 204.772 323.48 198.774C323.645 194.546 324.05 189.81 327.237 187.037C318.021 185.185 308.728 183.764 299.36 182.775C295.643 182.381 291.875 182.056 288.169 182.598C283.706 183.249 279.521 185.12 275.405 186.974C270.845 189.028 266.256 191.1 262.168 193.981C260.594 195.198 258.954 196.325 257.254 197.359C254.153 199.07 250.59 199.641 247.249 200.782C239.53 203.411 233.076 208.84 229.16 215.999C225.245 223.157 224.153 231.524 226.099 239.449C227.239 236.499 228.037 233.413 229.371 230.543C230.705 227.673 232.672 224.963 235.471 223.496C238.39 221.979 241.913 221.99 245.088 222.863C248.264 223.736 251.12 225.419 253.97 227.119C260.321 230.971 266.809 235.467 269.824 242.251C276.095 237.583 282.509 233.122 288.791 228.432C291.516 226.406 294.281 224.363 297.439 223.137C301.589 221.522 306.144 221.425 310.596 221.339C315.049 221.254 319.877 221.003 324.233 222.155Z" fill="#FF6584"/>
<path d="M226.076 238.901L225.318 249.428L228.055 247.169L226.686 237.857L226.076 238.901Z" fill="#FF6584"/>
<path d="M123.325 103.717L114.478 109.332L119.848 99.5865C118.326 98.3706 116.442 97.698 114.495 97.6751H114.352C113.737 97.6841 113.123 97.6383 112.517 97.5382L109.518 99.4439L110.806 97.1046C108.68 96.3611 106.844 94.9629 105.562 93.1106L100.191 96.534L103.583 90.3662C100.442 86.5947 96.2123 84.2839 91.5604 84.2839C85.9793 84.2839 81.0083 87.6046 77.7987 92.7797C76.8481 94.3326 75.5031 95.6054 73.9007 96.4684C72.2984 97.3314 70.496 97.7537 68.6774 97.6922H68.3753C62.2127 97.6922 57.2188 104.682 57.2188 113.309C57.2188 121.936 62.2127 128.925 68.3753 128.925C69.731 128.919 71.0649 128.584 72.2632 127.949C74.36 126.929 76.6532 126.377 78.9841 126.332C81.3151 126.287 83.628 126.749 85.7627 127.687C87.5687 128.495 89.5249 128.913 91.5034 128.913C93.4819 128.913 95.4381 128.495 97.2441 127.687C99.3635 126.767 101.656 126.315 103.965 126.36C106.275 126.405 108.548 126.947 110.63 127.949C111.816 128.571 113.133 128.897 114.472 128.902C120.634 128.902 125.628 121.907 125.628 113.286C125.677 109.953 124.885 106.662 123.325 103.717Z" fill="#F2F2F2"/>
<path opacity="0.03" d="M106.65 126.569C103.431 125.955 100.103 126.317 97.0902 127.607C95.2817 128.409 93.3247 128.821 91.3465 128.817C89.3683 128.812 87.4133 128.39 85.6088 127.578C83.4737 126.641 81.1605 126.18 78.8296 126.226C76.4987 126.273 74.2057 126.826 72.1093 127.847C70.9104 128.479 69.5765 128.812 68.2214 128.817C62.7486 128.817 58.1937 123.299 57.2474 116.019C58.341 115.221 59.2702 114.22 59.9838 113.069C63.1876 107.894 68.1644 104.568 73.7455 104.568C79.3265 104.568 84.2349 107.848 87.4274 112.972C88.3871 114.522 89.7317 115.798 91.3301 116.674C92.9286 117.55 94.7265 117.996 96.5486 117.97H96.6912C101.041 117.97 104.815 121.468 106.65 126.569Z" fill="black"/>
<path d="M281.22 136.747L276.808 139.526L279.487 134.653C278.729 134.046 277.79 133.711 276.819 133.701H276.774C276.468 133.704 276.163 133.681 275.861 133.632L274.362 134.579L275.006 133.438C273.945 133.068 273.029 132.371 272.39 131.447L269.71 133.159L271.42 130.083C270.704 129.155 269.789 128.399 268.742 127.872C267.695 127.345 266.544 127.059 265.372 127.036C262.59 127.036 260.11 128.691 258.531 131.276C258.056 132.052 257.383 132.687 256.582 133.117C255.78 133.547 254.879 133.757 253.97 133.723H253.822C250.749 133.723 248.258 137.21 248.258 141.512C248.258 145.814 250.749 149.3 253.822 149.3C254.498 149.297 255.163 149.131 255.76 148.815C256.805 148.303 257.949 148.027 259.112 148.004C260.275 147.981 261.429 148.213 262.493 148.684C263.39 149.085 264.361 149.295 265.343 149.3C266.325 149.301 267.297 149.095 268.194 148.695C269.251 148.236 270.394 148.01 271.546 148.033C272.698 148.056 273.831 148.326 274.869 148.826C275.463 149.136 276.122 149.298 276.791 149.3C279.863 149.3 282.355 145.814 282.355 141.512C282.382 139.853 281.992 138.215 281.22 136.747Z" fill="#F2F2F2"/>
<path opacity="0.03" d="M272.903 148.147C271.298 147.842 269.638 148.023 268.137 148.667C267.238 149.062 266.268 149.268 265.286 149.271C264.294 149.272 263.313 149.062 262.408 148.655C261.342 148.189 260.189 147.959 259.026 147.983C257.864 148.006 256.72 148.283 255.675 148.792C255.078 149.108 254.412 149.275 253.737 149.277C251.006 149.277 248.737 146.521 248.264 142.892C248.808 142.494 249.271 141.994 249.626 141.42C251.228 138.836 253.708 137.181 256.467 137.181C259.226 137.181 261.701 138.819 263.308 141.369C263.788 142.144 264.461 142.782 265.26 143.219C266.059 143.657 266.958 143.881 267.869 143.868H267.937C270.104 143.857 271.991 145.603 272.903 148.147Z" fill="black"/>
<path d="M302.427 49.0002L309.513 53.5019L305.209 45.6681C306.429 44.6963 307.937 44.1583 309.496 44.139H309.61C310.102 44.1435 310.594 44.1072 311.081 44.0305L313.487 45.554L312.438 43.6711C314.139 43.0775 315.609 41.9612 316.639 40.4816L320.943 43.2089L318.224 38.2678C320.738 35.2438 324.13 33.3952 327.858 33.3952C332.333 33.3952 336.313 36.054 338.884 40.202C339.644 41.4433 340.719 42.4609 342 43.1514C343.28 43.8419 344.721 44.1807 346.175 44.1332H346.414C351.351 44.1332 355.353 49.7305 355.353 56.6457C355.353 63.561 351.363 69.1525 346.414 69.1525C345.329 69.1489 344.262 68.8827 343.302 68.3766C341.62 67.556 339.78 67.1121 337.909 67.0756C336.039 67.0392 334.183 67.4111 332.47 68.1655C331.015 68.8141 329.44 69.1504 327.847 69.1525C326.276 69.1516 324.722 68.8212 323.286 68.1826C321.588 67.4467 319.752 67.0847 317.902 67.1211C316.052 67.1575 314.231 67.5915 312.563 68.3937C311.61 68.8883 310.553 69.1485 309.479 69.1525C304.542 69.1525 300.54 63.5553 300.54 56.6457C300.519 53.9792 301.168 51.3502 302.427 49.0002Z" fill="#F2F2F2"/>
<path opacity="0.03" d="M315.767 67.3096C318.347 66.8178 321.015 67.1078 323.429 68.1426C324.875 68.7895 326.442 69.1239 328.026 69.1239C329.611 69.1239 331.178 68.7895 332.624 68.1426C334.337 67.3912 336.193 67.021 338.063 67.0574C339.933 67.0939 341.773 67.5362 343.456 68.3537C344.414 68.8642 345.483 69.1325 346.568 69.1354C350.952 69.1354 354.601 64.7135 355.365 58.8652C354.487 58.2258 353.741 57.4216 353.17 56.4974C350.599 52.3551 346.614 49.6906 342.144 49.6906C337.675 49.6906 333.736 52.3209 331.165 56.4232C330.397 57.6602 329.322 58.6778 328.046 59.3775C326.77 60.0772 325.334 60.4353 323.879 60.4172H323.765C320.265 60.4229 317.249 63.2244 315.767 67.3096Z" fill="black"/>
<path d="M184.842 176.847C184.546 176.396 183.092 176.847 181.599 177.822C181.337 177.999 181.086 178.182 180.858 178.364C179.818 177.824 178.697 177.458 177.54 177.28L177.603 177.235C179.11 176.246 180.507 175.098 181.77 173.811H178.56L183.218 172.02C183.788 171.113 183.97 170.354 183.657 169.88C182.813 168.614 178.743 169.835 174.535 172.619C172.64 173.829 170.935 175.315 169.479 177.029C166.058 177.429 163.658 178.433 163.658 179.603C163.658 180.413 164.799 181.143 166.651 181.651L166.543 181.719C162.359 184.498 159.645 187.784 160.489 189.051C161.23 190.192 164.479 189.348 168.116 187.231L165.705 186.09L169.507 186.352L169.587 186.301C169.992 186.033 170.38 185.759 170.756 185.485L167.905 184.161L172.084 184.447C172.875 183.791 173.615 183.076 174.296 182.307C178.19 182.102 181.234 181.166 181.764 179.956C182.088 179.809 182.404 179.645 182.71 179.466C183.246 179.117 183.743 178.711 184.193 178.256H183.052L184.711 177.617C184.894 177.286 184.957 177.018 184.842 176.847Z" fill="#F2F2F2"/>
<path d="M74.0989 350.162C74.1123 352.114 73.9212 354.063 73.5288 355.976C73.449 356.335 73.3692 356.689 73.2894 357.031C71.163 365.561 65.1658 371.803 58.0113 372.203C57.7718 372.203 57.5324 372.203 57.2816 372.203C49.7166 372.203 43.3203 365.67 41.2053 356.672C41.1483 356.432 41.097 356.193 41.04 355.953C40.6381 354.041 40.4374 352.093 40.4414 350.139C40.4414 337.952 47.9836 328.075 57.2816 328.075C66.5796 328.075 74.0989 337.974 74.0989 350.162Z" fill="#3F3D56"/>
<path opacity="0.1" d="M74.0989 350.162C74.1123 352.114 73.9212 354.063 73.5288 355.976C73.449 356.335 73.3692 356.689 73.2894 357.031C73.0329 357.031 72.7877 357.031 72.5312 357.003C70.678 356.9 68.8363 356.646 67.0242 356.244C65.4169 356.747 63.7743 357.128 62.1101 357.385C60.8353 357.577 59.5505 357.697 58.2621 357.745C57.8289 357.745 57.3956 357.745 56.9623 357.745C55.4198 357.746 53.879 357.643 52.3504 357.436C49.8798 357.108 47.4534 356.505 45.1161 355.639C43.8341 356.065 42.5283 356.416 41.2053 356.689C41.1483 356.449 41.097 356.21 41.04 355.97C40.6381 354.058 40.4374 352.11 40.4414 350.156C40.4414 337.969 47.9836 328.092 57.2816 328.092C66.5796 328.092 74.0989 337.974 74.0989 350.162Z" fill="black"/>
<path d="M110.025 309.058C110.028 303.706 108.772 298.429 106.36 293.653L86.5494 299.821L103.937 289.585C101.022 285.367 97.1982 281.859 92.7471 279.319C88.296 276.779 83.3316 275.272 78.2206 274.91C77.4043 273.658 76.5074 272.461 75.5355 271.327L47.0657 280.188L70.4048 266.483C65.9449 263.054 60.7091 260.779 55.161 259.859C49.613 258.938 43.9238 259.402 38.5973 261.207C33.2707 263.012 28.4711 266.105 24.6234 270.209C20.7757 274.314 17.9986 279.305 16.538 284.741L40.9089 312.813L14.4458 293.687C7.72382 298.429 2.93199 305.434 0.946689 313.421C-1.03861 321.409 -0.0846709 329.845 3.63403 337.186C7.35273 344.527 13.5876 350.283 21.1984 353.401C28.8092 356.519 37.2872 356.791 45.0819 354.167C52.1235 356.749 59.8157 356.953 66.9843 354.749C71.9855 355.849 77.1694 355.813 82.1548 354.644C87.1403 353.475 91.8005 351.202 95.7928 347.993C99.7851 344.784 103.008 340.72 105.224 336.1C107.441 331.48 108.594 326.422 108.6 321.297C108.6 320.532 108.572 319.779 108.52 319.015C109.51 315.788 110.017 312.433 110.025 309.058Z" fill="#57B894"/>
<path opacity="0.1" d="M109.432 315.414C98.9732 313.432 88.2481 313.295 77.7417 315.009C65.8498 316.983 53.6958 321.314 42.0661 318.147C35.2252 316.287 29.3306 311.991 22.6834 309.589C16.2441 307.345 9.30807 306.938 2.65086 308.413C0.111548 314.487 -0.626441 321.163 0.525128 327.645C1.6767 334.127 4.66909 340.139 9.14454 344.964C13.62 349.789 19.3891 353.221 25.7621 354.851C32.1351 356.481 38.8424 356.24 45.0819 354.156C52.1223 356.741 59.8145 356.949 66.9843 354.749C71.9855 355.849 77.1694 355.813 82.1548 354.644C87.1403 353.475 91.8005 351.202 95.7928 347.993C99.7851 344.784 103.008 340.72 105.224 336.1C107.441 331.48 108.594 326.422 108.6 321.297C108.6 320.532 108.572 319.779 108.52 319.015C108.892 317.833 109.197 316.631 109.432 315.414Z" fill="black"/>
</g>
<defs>
<clipPath id="clip0_689_4">
<rect width="606" height="408" fill="white"/>
</clipPath>
</defs>
</svg>
